<svg width="318" height="1117" viewBox="0 0 318 1117" fill="none" xmlns="http://www.w3.org/2000/svg">
<mask id="mask0_2_863" style="mask-type:luminance" maskUnits="userSpaceOnUse" x="0" y="0" width="318" height="1117">
<path d="M318 0H0V1117H318V0Z" fill="white"/>
</mask>
<g mask="url(#mask0_2_863)">
<path fill-rule="evenodd" clip-rule="evenodd" d="M-109 908H24.9515L91.3448 974.459C152.691 1035.79 157.893 1040.84 159.911 1040.45C161.621 1040.07 162.552 1040.53 164.727 1042.71C166.824 1044.8 167.289 1045.81 166.9 1047.21C166.667 1048.14 165.504 1049.69 164.416 1050.7C163.329 1051.63 161.621 1052.49 160.688 1052.41C159.679 1052.41 158.049 1051.48 156.962 1050.31C155.796 1048.99 155.02 1047.21 155.02 1045.81C155.02 1043.79 147.177 1035.64 23.3985 911.882H-109V908ZM10.9739 923.527L49.4122 961.959V993.016L60.827 1004.58C70.9997 1014.76 72.5527 1016 74.2611 1015.53C75.8141 1015.14 76.6683 1015.53 78.6873 1017.63C80.085 1019.02 81.2498 1020.89 81.2498 1021.74C81.2498 1022.6 80.2403 1024.3 79.0755 1025.47C77.7554 1026.79 76.1247 1027.64 74.8047 1027.57C73.3293 1027.57 72.0868 1026.79 70.6891 1025.08C69.2137 1023.3 68.7478 1021.98 69.0584 1020.58C69.4466 1018.87 67.9713 1017.08 45.5296 994.567V963.512L8.64435 926.633H-50.2167C-108.534 926.633 -109 926.633 -109 925.081C-109 923.527 -108.534 923.527 10.9739 923.527ZM-3.78021 938.28L34.5804 976.712L34.658 1016.93C34.658 1056.29 34.658 1057.07 36.2111 1057.85C37.4535 1058.47 37.7641 1059.4 37.7641 1062.35C37.7641 1064.37 37.3759 1066.46 36.8323 1067.01C36.2887 1067.55 34.2698 1067.94 32.3285 1067.94C30.3872 1067.94 28.3682 1067.55 27.8247 1067.01C27.2811 1066.46 26.8928 1064.52 26.8928 1062.74C26.8928 1060.72 27.3587 1058.93 28.1353 1058.23C28.7565 1057.61 29.6107 1057.07 30.0766 1057.07C30.4648 1057.07 30.7754 1041.38 30.7754 978.263L-6.10978 941.385H-57.5937C-108.534 941.385 -109 941.385 -109 939.832C-109 938.28 -108.534 938.28 -3.78021 938.28ZM-109 953.031H-18.5343L19.8263 991.462V1004.27C19.8263 1016.15 19.9039 1017.24 21.3793 1018.64C22.4664 1019.72 22.9324 1021.2 23.0102 1023.53C23.0102 1026.09 22.6217 1027.1 21.224 1027.95C20.2922 1028.65 18.6615 1029.12 17.5744 1029.12C16.4872 1029.12 14.8565 1028.65 13.847 1027.95C12.527 1027.02 12.1387 1026.09 12.1387 1023.3C12.1387 1020.42 12.4493 1019.65 14.08 1018.64C14.32 1018.49 14.5303 1018.37 14.7146 1018.21C16.0213 1017.1 16.0213 1014.45 16.0213 993.016L-20.0874 956.913H-109V953.031ZM291.69 1485.25V1509.32L319.801 1537.59C345.892 1563.67 348.143 1565.75 350.085 1565.3C351.793 1564.99 352.88 1565.38 354.977 1567.16C356.606 1568.56 357.694 1570.18 357.694 1571.28C357.694 1572.2 356.685 1574 355.521 1575.15C354.201 1576.47 352.569 1577.33 351.249 1577.25C349.774 1577.25 348.532 1576.47 347.134 1574.78C345.97 1573.3 345.193 1571.5 345.348 1570.49C345.581 1569.11 339.834 1562.97 287.807 1510.86V1486.8L89.4035 1288.44C-99.0603 1100 -109 1089.91 -109 1087.35C-109 1084.79 -99.9923 1093.64 291.69 1485.25ZM276.159 1490.69V1514.76L289.127 1527.8C300.621 1539.36 302.406 1540.76 304.114 1540.37C305.512 1539.98 306.755 1540.37 308.54 1541.85C310.326 1543.25 311.103 1544.57 311.103 1546.04C311.103 1547.29 310.172 1549 308.928 1550.32C307.764 1551.48 306.056 1552.48 305.045 1552.4C304.114 1552.4 302.25 1551.39 301.008 1550.07C299.222 1548.3 298.757 1547.29 299.068 1545.66C299.455 1543.71 298.134 1542.16 272.276 1516.3V1492.24L81.638 1301.63C-99.4488 1120.66 -109 1110.87 -109 1108.31C-109 1105.75 -100.381 1114.21 276.159 1490.69ZM260.629 1496.11V1520.2L268.938 1528.5C276.081 1535.63 277.558 1536.8 279.265 1536.41C280.664 1536.1 281.906 1536.58 283.692 1537.96C285.477 1539.36 286.254 1540.68 286.254 1542.16C286.254 1543.4 285.323 1545.11 284.079 1546.43C282.915 1547.6 281.284 1548.61 280.429 1548.61C279.576 1548.61 277.712 1547.44 276.237 1546.04C274.217 1544.1 273.751 1543.09 274.141 1541.54C274.528 1539.92 273.364 1538.35 256.746 1521.74V1497.68L73.8728 1314.83C-99.7594 1141.23 -109 1131.84 -109 1129.27C-109 1126.71 -100.769 1134.86 260.629 1496.11ZM245.098 1501.55V1525.62L263.113 1543.65C279.032 1559.47 281.44 1561.65 283.148 1561.26C284.468 1560.95 285.788 1561.41 287.574 1562.81C289.36 1564.21 290.137 1565.53 290.137 1567.01C290.137 1568.25 289.206 1569.96 287.961 1571.28C286.798 1572.45 285.088 1573.46 284.079 1573.38C283.07 1573.38 281.362 1572.29 280.042 1570.66C278.41 1568.78 277.79 1567.4 278.099 1566.23C278.489 1564.74 275.461 1561.41 241.216 1527.18V1503.12L66.1076 1328.03C-100.148 1161.8 -109 1152.8 -109 1150.24C-109 1147.67 -101.079 1155.44 245.098 1501.55ZM-6.03213 1268.25C-5.02265 1268.25 -3.15899 1269.1 -1.83891 1270.19C-0.0529061 1271.74 0.49066 1272.75 0.49066 1275.08C0.49066 1277.88 2.50983 1280.05 141.043 1418.47L140.965 1541.15L199.825 1599.55C257.91 1657.22 258.61 1658 255.737 1658C252.94 1658 251.465 1656.6 212.25 1617.86C189.963 1595.73 163.951 1569.96 137.082 1543.48L137.16 1420.8L67.0394 1350.79C3.20868 1286.96 -3.23665 1280.83 -5.17796 1281.14C-6.80865 1281.37 -7.89578 1280.9 -9.99239 1278.73C-11.4678 1277.26 -12.7879 1275.55 -12.7879 1274.93C-12.8655 1274.23 -11.7784 1272.52 -10.3806 1271.04C-8.90526 1269.34 -7.19691 1268.25 -6.03213 1268.25ZM318.248 1318.71C319.024 1318.71 320.499 1319.49 321.663 1320.5C322.829 1321.51 323.838 1323.45 324.149 1325.16C324.615 1327.64 328.264 1331.69 382.155 1385.63L382.621 1409.94L506.634 1534C625.209 1652.64 630.49 1658 627.928 1658C625.365 1658 618.764 1651.63 378.66 1411.49V1387.42L350.007 1359.09C323.76 1333.15 321.119 1330.74 318.946 1330.99C317.16 1331.13 315.916 1330.6 314.209 1328.81C312.888 1327.57 311.801 1325.94 311.725 1325.16C311.646 1324.46 312.734 1322.67 314.209 1321.28C315.607 1319.88 317.471 1318.71 318.248 1318.71ZM385.649 1322.6C386.038 1322.6 387.669 1323.76 389.222 1325.16C391.395 1327.1 391.939 1328.11 391.706 1329.82C391.474 1331.69 393.649 1334.08 428.36 1368.8V1392.86L540.179 1504.66C646.175 1610.63 652 1616.63 652 1619.18C652 1621.82 647.108 1617 425.253 1395.19V1371.89L406.85 1353.43C390.852 1337.5 388.057 1334.94 386.038 1335.03C384.485 1335.03 382.932 1334.24 381.533 1332.92C380.37 1331.69 379.36 1330.05 379.36 1329.12C379.36 1328.19 380.602 1326.4 382.155 1325C383.63 1323.68 385.262 1322.6 385.649 1322.6ZM364.683 1343.56C365.072 1343.56 366.703 1344.73 368.256 1346.11C370.429 1348.07 370.973 1349.08 370.74 1350.79C370.508 1352.73 372.139 1354.58 397.297 1380.05L397.375 1391.15C397.453 1397.21 397.375 1402.57 397.297 1402.96C397.297 1403.41 454.45 1460.96 524.416 1530.91C646.021 1652.48 651.456 1658 648.894 1658C646.332 1658 639.652 1651.47 394.191 1406.05V1381.98L381.146 1369.02C369.342 1357.16 367.945 1355.98 365.459 1355.98C363.519 1355.98 362.12 1355.36 360.567 1353.88C359.404 1352.64 358.394 1351.02 358.394 1350.09C358.394 1349.14 359.636 1347.37 361.189 1345.97C362.664 1344.65 364.295 1343.56 364.683 1343.56ZM391.008 1348.3C391.706 1348.6 393.027 1349.7 394.036 1350.71C395.202 1351.86 395.744 1353.26 395.589 1354.66C395.356 1356.45 396.755 1358.16 413.216 1374.69L412.673 1398.3L532.414 1517.87C646.875 1632.22 652.076 1637.58 651.843 1639.99C651.611 1642.4 647.184 1638.12 408.868 1399.85L409.023 1375.78L401.025 1367.79C393.882 1360.72 392.794 1359.85 390.852 1360.25C389.144 1360.55 388.213 1360.1 386.038 1357.92C384.563 1356.45 383.319 1354.58 383.319 1353.88C383.243 1353.12 384.252 1351.55 385.416 1350.46C386.582 1349.39 388.057 1348.3 388.679 1348.07C389.299 1347.82 390.308 1347.9 391.008 1348.3ZM20.6028 1359.09C21.0687 1359.09 22.6217 1360.25 24.0197 1361.56C26.0386 1363.52 26.5822 1364.68 26.5822 1366.7C26.5046 1369.11 27.514 1370.34 50.9652 1393.25H83.9676L125.512 1434.79V1549.68L179.636 1603.89C231.741 1655.98 233.683 1658 231.121 1658C228.559 1658 225.296 1654.97 121.629 1551.25L121.552 1436.34L83.1911 1397.91H49.8004L36.7546 1384.95C24.7186 1372.9 23.5538 1371.89 21.224 1372.13C19.2827 1372.36 18.2732 1371.89 16.7202 1370.2C15.5554 1369.02 14.4683 1367.4 14.1577 1366.7C13.847 1365.77 14.6236 1364.37 16.7202 1362.18C18.3509 1360.49 20.0592 1359.09 20.6028 1359.09ZM247.739 928.186C248.67 928.186 250.534 929.35 252.009 930.826C254.027 932.999 254.493 933.931 254.184 935.717C253.794 937.736 255.426 939.523 294.019 978.263V1065.22L331.292 1102.49V1189.44L361.966 1220.11H395.744L396.909 1218.17C397.919 1216.54 398.617 1216.23 401.801 1216.23C404.209 1216.23 405.917 1216.7 406.85 1217.63C407.626 1218.4 408.246 1220.04 408.17 1221.66C408.17 1223.14 407.626 1225.16 407.004 1226.17C406.149 1227.49 405.064 1227.87 402.734 1227.87C401.025 1227.87 398.928 1227.57 398.075 1227.1C397.22 1226.63 396.52 1225.78 396.52 1225.16C396.52 1224.15 393.958 1223.99 359.636 1223.99L327.41 1191.77V1104.04L290.137 1066.77V979.817L270.491 960.251C253.251 943.015 250.688 940.763 248.981 941.153C247.504 941.464 246.262 940.92 244.165 939.133C242.536 937.815 241.137 935.95 241.059 935.018C240.983 933.931 241.914 932.379 243.545 930.749C245.02 929.35 246.884 928.186 247.739 928.186ZM247.739 951.477C248.437 951.477 250.223 952.643 251.776 954.04C254.184 956.136 254.493 956.913 254.184 958.854C253.794 961.028 254.571 962.037 277.712 985.252V1072.21L315.762 1110.25V1197.21L354.201 1235.64H387.591L499.256 1347.29C605.485 1453.5 610.999 1458.86 613.794 1459C615.736 1459.09 617.365 1459.87 618.842 1461.33C620.163 1462.65 620.939 1464.36 620.939 1465.62C620.939 1467.08 620.084 1468.48 618.22 1470.11C616.745 1471.34 614.96 1472.44 614.338 1472.44C613.716 1472.44 611.93 1471.28 610.377 1469.88C608.125 1467.86 607.66 1466.94 607.893 1464.83C608.125 1462.42 603.466 1457.68 385.262 1239.52H351.871L311.801 1199.54L311.879 1111.8L273.83 1073.76V986.804L262.569 975.547C252.163 965.142 251.078 964.289 248.748 964.522C246.806 964.755 245.718 964.289 243.778 962.424C242.379 961.106 241.216 959.319 241.292 958.388C241.37 957.457 242.536 955.594 243.932 954.119C245.331 952.644 247.039 951.477 247.739 951.477ZM151.215 968.558C152.846 968.558 154.166 969.335 155.796 971.276C157.582 973.374 158.049 974.538 157.66 976.089C157.273 978.109 162.552 983.544 297.902 1118.79L297.823 1241.46L323.294 1266.38C337.272 1280.05 351.56 1293.95 354.977 1297.21C360.256 1302.25 361.5 1303.11 363.362 1302.8C364.994 1302.49 366.081 1303.03 368.178 1305.13C369.653 1306.6 370.895 1308.39 370.895 1309.01C370.895 1309.63 369.809 1311.42 368.565 1312.89C367.09 1314.68 365.537 1315.61 364.295 1315.61C363.208 1315.61 361.268 1314.68 359.947 1313.43C357.927 1311.73 357.539 1310.87 357.772 1308.78C358.083 1306.21 357.074 1305.13 332.069 1280.75C317.78 1266.77 303.337 1252.72 293.941 1243.79L294.019 1120.34L224.365 1050.62C157.349 983.698 154.554 980.981 152.302 981.446C150.439 981.836 149.507 981.525 147.488 979.738C146.168 978.496 144.848 976.711 144.615 975.702C144.304 974.459 144.848 973.217 146.556 971.276C148.264 969.335 149.585 968.558 151.215 968.558ZM-91.9163 1007.46C-91.6833 1007.46 -90.3633 1008.31 -88.9655 1009.32C-87.1019 1010.8 -86.4807 1011.88 -86.4807 1013.75C-86.4807 1016.07 -83.6852 1019.1 -28.2409 1074.54V1098.61L401.257 1527.95L401.181 1561.34C401.181 1579.66 400.946 1601.09 400.015 1622.91L402.112 1624.54C403.898 1625.86 404.287 1626.78 404.287 1629.67C404.287 1632.62 403.976 1633.32 402.112 1634.47C400.637 1635.34 399.239 1635.56 397.299 1635.25C395.822 1634.94 394.347 1634.24 394.036 1633.71C393.725 1633.23 393.414 1631.3 393.414 1629.42C393.414 1627.03 393.882 1625.77 396.909 1622.99L397.919 1530.27L-32.1235 1100.16V1076.09L-60.6222 1047.52C-84.1511 1023.99 -89.5091 1019.02 -90.7515 1019.49C-91.6057 1019.72 -93.0811 1019.8 -94.0906 1019.49C-95.0224 1019.26 -96.4978 1017.86 -97.2743 1016.46C-98.1287 1015.14 -98.5946 1013.43 -98.3616 1012.81C-98.1287 1012.19 -97.4296 1011.03 -96.8084 1010.17C-96.1872 1009.4 -94.9447 1008.46 -94.0129 1008.08C-93.0811 1007.77 -92.1493 1007.46 -91.9163 1007.46ZM-25.2901 1012.04C-24.0477 1012.04 -22.2616 1012.97 -21.0192 1014.21C-19.6215 1015.61 -18.9226 1017.08 -18.9226 1018.64C-18.9226 1020.65 -16.3599 1023.53 18.3509 1058.23V1082.3L447.773 1511.65V1575.31L449.713 1577.02C451.19 1578.43 451.655 1579.58 451.655 1582.07C451.731 1583.93 451.266 1585.8 450.722 1586.34C450.178 1586.81 448.316 1587.35 446.531 1587.51C444.51 1587.66 442.881 1587.35 442.026 1586.56C441.095 1585.8 440.706 1584.24 440.784 1581.68C440.784 1578.65 441.095 1577.87 444.667 1575.71V1513.98L14.4683 1083.85L14.5459 1060.56L-3.54726 1042.08C-20.0097 1025.24 -21.7957 1023.68 -23.8147 1024.07C-25.4454 1024.38 -26.4549 1023.92 -28.6291 1021.74C-30.1045 1020.27 -31.4246 1018.56 -31.4246 1017.94C-31.5023 1017.32 -30.5704 1015.76 -29.4057 1014.44C-28.0856 1012.89 -26.6102 1012.04 -25.2901 1012.04ZM91.2671 1031.45C91.966 1031.45 93.6743 1032.54 95.0721 1033.93C96.9357 1035.79 97.557 1037.04 97.4017 1038.59C97.1687 1040.53 103.381 1046.97 153.079 1096.59C202.622 1146.12 209.222 1152.41 210.931 1152.1C212.406 1151.79 213.494 1152.33 215.434 1154.12C216.911 1155.52 217.996 1157.3 217.996 1158.08C217.92 1158.93 216.911 1160.56 215.667 1161.88C214.425 1163.12 212.639 1164.21 211.784 1164.21C210.853 1164.21 209.067 1163.12 207.825 1161.88C206.037 1160.1 205.572 1159.01 205.883 1157.38C206.194 1155.44 201.145 1150.24 150.361 1099.38C99.1876 1048.22 94.2179 1043.48 92.1213 1043.64C90.413 1043.79 89.1705 1043.25 87.4622 1041.54C86.1421 1040.22 85.0549 1038.59 84.9773 1037.89C84.8996 1037.19 85.9868 1035.41 87.4622 1034.01C88.9376 1032.61 90.6459 1031.45 91.2671 1031.45ZM-46.2564 1033C-45.0139 1033 -43.2279 1033.93 -41.9855 1035.17C-40.5877 1036.57 -39.8888 1038.05 -39.8888 1039.6C-39.8888 1041.62 -37.8698 1043.95 -12.7102 1069.1V1093.17L417.488 1523.29V1565.22C417.488 1606.28 417.488 1607.15 419.041 1608.08C420.205 1608.86 420.594 1609.95 420.594 1612.73C420.594 1614.83 420.205 1616.94 419.661 1617.39C419.117 1617.95 417.021 1618.4 415.002 1618.4C412.053 1618.4 411.12 1618.09 410.5 1616.85C410.11 1615.99 409.723 1614.05 409.723 1612.59C409.723 1611.1 410.265 1609.31 410.965 1608.69C411.585 1608.08 412.518 1607.54 412.905 1607.54C413.295 1607.54 413.606 1591.16 413.606 1524.85L-16.5928 1094.72V1070.66L-29.561 1057.61C-41.3642 1045.81 -42.8396 1044.65 -44.781 1045.03C-46.4893 1045.34 -47.4212 1044.88 -49.5955 1042.71C-51.0709 1041.23 -52.391 1039.52 -52.391 1038.9C-52.4686 1038.28 -51.5368 1036.73 -50.372 1035.41C-49.0519 1033.85 -47.5765 1033 -46.2564 1033ZM-20.9416 1036.88C-20.0097 1036.88 -18.379 1037.89 -17.1364 1039.06C-15.7387 1040.45 -15.0398 1041.93 -15.0398 1043.48C-15.0398 1045.42 -13.4867 1047.29 2.74257 1063.67L2.82043 1087.74L433.019 1517.87V1554.9C433.019 1591.22 433.019 1592 434.572 1592.79C435.814 1593.41 436.125 1594.33 436.125 1597.22C436.125 1599.3 435.735 1601.4 435.192 1601.87C434.648 1602.41 432.708 1602.88 430.765 1602.88C428.747 1602.88 426.728 1602.49 426.184 1601.94C425.641 1601.4 425.253 1599.46 425.253 1597.59C425.253 1595.12 425.719 1593.94 429.136 1590.85V1519.41L-1.06239 1089.29V1065.22L-9.44882 1056.84C-16.2822 1049.85 -18.0684 1048.45 -19.5438 1048.84C-20.4756 1049.07 -22.1063 1048.76 -23.1935 1048.14C-24.2806 1047.52 -25.6783 1046.12 -26.2996 1045.03C-27.2314 1043.48 -27.309 1042.71 -26.5325 1041.31C-26.0666 1040.37 -24.9795 1038.98 -24.1253 1038.2C-23.2711 1037.5 -21.7957 1036.88 -20.9416 1036.88ZM177.695 1059.4C178.472 1059.4 180.336 1060.64 181.811 1062.11C183.986 1064.29 184.451 1065.22 184.14 1066.93C183.751 1068.87 184.917 1070.34 208.212 1093.56H240.826L282.371 1135.1V1249.23L309.395 1276.17C333.7 1300.47 336.573 1303.11 338.437 1302.8C340.145 1302.49 341.232 1303.03 343.329 1305.13C344.804 1306.6 346.046 1308.39 346.046 1309.01C346.046 1309.63 344.959 1311.42 343.717 1312.89C342.087 1314.76 340.689 1315.61 339.214 1315.61C337.97 1315.61 336.262 1314.83 334.942 1313.51C333.235 1311.8 332.767 1310.8 333.002 1308.85C333.235 1306.45 331.681 1304.74 278.489 1251.56V1136.65L239.273 1097.44H205.883L193.226 1084.79C181.578 1073.14 180.49 1072.21 178.082 1072.44C176.064 1072.67 175.133 1072.21 173.036 1069.96C171.716 1068.4 170.55 1066.93 170.55 1066.54C170.474 1066.23 171.25 1064.91 172.26 1063.67C173.191 1062.35 174.511 1060.95 175.209 1060.41C175.831 1059.86 176.997 1059.4 177.695 1059.4ZM246.419 936.339C245.875 935.795 245.718 934.864 246.108 934.165C246.495 933.465 247.35 932.999 248.048 933.156C248.748 933.31 249.446 934.009 249.525 934.707C249.679 935.484 249.214 936.339 248.592 936.648C247.893 937.038 246.962 936.881 246.419 936.339ZM73.5624 1020.81C72.9412 1021.51 73.0189 1021.98 73.873 1022.67C74.8049 1023.45 75.2708 1023.45 76.2026 1022.67C77.1344 1021.9 77.2121 1021.51 76.4355 1020.73C75.892 1020.19 75.1931 1019.72 74.9602 1019.8C74.6496 1019.8 74.0283 1020.27 73.5624 1020.73V1020.81ZM16.0215 1023.37C16.0215 1024.77 16.4098 1025.31 17.5746 1025.31C18.7393 1025.31 19.1276 1024.77 19.1276 1023.37C19.1276 1021.98 18.7393 1021.43 17.5746 1021.43C16.4098 1021.43 16.0215 1021.98 16.0215 1023.37ZM159.679 1047.83C158.902 1047.42 158.721 1046.77 159.135 1045.89C159.524 1045.19 160.379 1044.72 161.077 1044.88C161.776 1045.03 162.476 1045.66 162.63 1046.28C162.785 1046.9 162.398 1047.67 161.854 1047.98C161.31 1048.22 160.301 1048.22 159.679 1047.83ZM30.7754 1062.58C30.7754 1063.62 31.2933 1064.13 32.3285 1064.13C33.3639 1064.13 33.8817 1063.62 33.8817 1062.58C33.8817 1061.55 33.3639 1061.03 32.3285 1061.03C31.2933 1061.03 30.7754 1061.55 30.7754 1062.58ZM-6.8863 1275.86C-7.74048 1275.16 -7.81813 1274.69 -7.19691 1273.99V1273.92C-6.73079 1273.45 -6.10957 1272.98 -5.79896 1272.98C-5.56601 1272.91 -4.86714 1273.37 -4.32358 1273.92C-3.54706 1274.69 -3.6247 1275.08 -4.55653 1275.86C-5.48836 1276.63 -5.95427 1276.63 -6.8863 1275.86ZM316.695 1324.69C316.384 1325.39 316.538 1326.32 317.082 1326.87C317.859 1327.57 318.324 1327.57 319.257 1326.63C320.188 1325.7 320.266 1325.24 319.49 1324.46C318.946 1323.92 318.248 1323.45 317.859 1323.53C317.548 1323.53 317.004 1324.07 316.695 1324.69ZM384.485 1330.28C383.63 1329.58 383.554 1329.12 384.174 1328.34C384.639 1327.88 385.262 1327.41 385.573 1327.41C385.805 1327.33 386.504 1327.8 387.047 1328.34C387.824 1329.12 387.746 1329.51 386.815 1330.28C385.884 1331.05 385.416 1331.05 384.485 1330.28ZM363.208 1349.3C362.586 1350.09 362.664 1350.54 363.519 1351.24C364.45 1352.02 364.915 1352.02 365.848 1351.24C366.779 1350.46 366.858 1350.09 366.081 1349.3C365.537 1348.77 364.839 1348.3 364.606 1348.38C364.295 1348.38 363.673 1348.83 363.208 1349.3ZM388.368 1355.14C387.513 1354.44 387.437 1353.96 388.057 1353.18C388.522 1352.73 389.144 1352.25 389.455 1352.25C389.688 1352.17 390.386 1352.64 390.93 1353.18C391.706 1353.96 391.628 1354.35 390.697 1355.14C389.766 1355.9 389.299 1355.9 388.368 1355.14ZM19.0499 1365.07C18.1181 1366.16 18.1958 1366.53 19.2829 1367.62C20.603 1368.88 20.7583 1368.88 22.0007 1367.62C23.2432 1366.47 23.2432 1366.16 22.2337 1365.07C21.6125 1364.37 20.836 1363.83 20.603 1363.89C20.2924 1363.89 19.5935 1364.45 19.0499 1365.07ZM278.876 1543.65C278.643 1543.01 278.643 1542.08 278.876 1541.69C279.187 1541.32 279.887 1540.93 280.429 1540.93C281.051 1540.93 281.749 1541.32 281.982 1541.69C282.217 1542.08 281.906 1543.01 281.362 1543.65C280.897 1544.33 280.196 1544.88 279.809 1544.8C279.498 1544.8 279.111 1544.26 278.876 1543.65ZM303.648 1545.73C303.416 1546.28 303.648 1547.21 304.192 1547.75C305.123 1548.61 305.434 1548.53 306.211 1547.52C306.755 1546.9 307.066 1545.97 306.833 1545.58C306.6 1545.19 305.9 1544.8 305.28 1544.8C304.736 1544.8 303.959 1545.27 303.648 1545.73ZM282.761 1568.47C282.526 1567.86 282.759 1566.76 283.302 1566.08C284.157 1565.07 284.39 1565.07 285.477 1566.08C286.487 1567.09 286.487 1567.4 285.477 1568.47C284.855 1569.17 284.079 1569.73 283.692 1569.65C283.381 1569.65 282.993 1569.11 282.761 1568.47ZM350.085 1570.8C349.774 1571.5 349.929 1572.45 350.472 1572.99C351.249 1573.69 351.715 1573.69 352.648 1572.76C353.579 1571.81 353.657 1571.36 352.88 1570.58C352.337 1570.04 351.638 1569.57 351.249 1569.65C350.938 1569.65 350.396 1570.18 350.085 1570.8ZM246.73 957.457C246.107 958.31 246.108 958.932 246.806 959.785C247.661 960.795 247.972 960.873 248.824 960.018C249.368 959.476 249.601 958.388 249.368 957.611C249.135 956.913 248.67 956.293 248.283 956.293C247.893 956.293 247.195 956.834 246.73 957.457ZM149.74 976.246C148.575 975.082 148.575 974.771 149.585 974.148C150.206 973.761 150.905 973.374 151.138 973.374C151.371 973.374 152.07 973.761 152.691 974.148C153.7 974.771 153.7 975.082 152.458 976.246C151.215 977.565 151.06 977.565 149.74 976.246ZM-94.0129 1013.36C-94.3235 1014.05 -94.3235 1014.91 -93.8576 1015.38C-93.4693 1015.76 -92.4599 1015.84 -91.6833 1015.53C-90.9068 1015.14 -90.3633 1014.37 -90.5186 1013.75C-90.6739 1013.12 -91.3727 1012.5 -92.0716 1012.35C-92.7705 1012.19 -93.6247 1012.66 -94.0129 1013.36ZM-26.144 1019.41C-26.6876 1018.87 -26.8429 1017.94 -26.5325 1017.24C-26.2217 1016.62 -25.6781 1016.07 -25.3675 1016.07C-24.9793 1016 -24.2804 1016.46 -23.7368 1017.01C-22.9603 1017.78 -23.038 1018.25 -23.9698 1019.18C-24.9016 1020.11 -25.3675 1020.11 -26.144 1019.41ZM89.8694 1037.19C89.2482 1037.97 89.3258 1038.51 90.18 1039.37C91.2671 1040.38 91.5777 1040.38 92.7427 1039.13C93.9075 1037.89 93.9075 1037.66 92.8978 1037.04C92.2768 1036.65 91.5001 1036.26 91.2671 1036.26C90.9565 1036.26 90.3353 1036.73 89.8694 1037.19ZM-47.1105 1040.37C-47.654 1039.83 -47.8093 1038.9 -47.4987 1038.2C-47.1881 1037.58 -46.6445 1037.04 -46.3339 1037.04C-45.9457 1036.96 -45.2468 1037.42 -44.7032 1037.97C-43.9267 1038.75 -44.0043 1039.21 -44.9362 1040.14C-45.868 1041.07 -46.3339 1041.07 -47.1105 1040.37ZM-21.8732 1042.01C-22.4167 1042.71 -22.6497 1043.56 -22.4167 1044.02C-22.1838 1044.41 -21.4849 1044.8 -20.8637 1044.8C-20.2425 1044.8 -19.466 1044.34 -19.233 1043.79C-19.0001 1043.33 -19.233 1042.39 -19.8542 1041.85C-20.7084 1041 -21.0967 1041.08 -21.8732 1042.01ZM175.986 1067.39C174.976 1066.77 174.976 1066.46 175.909 1065.45C176.453 1064.75 177.152 1064.21 177.463 1064.21C177.695 1064.13 178.472 1064.68 179.092 1065.38C180.103 1066.54 180.103 1066.77 179.092 1067.39C178.472 1067.78 177.774 1068.09 177.539 1068.09C177.306 1068.09 176.608 1067.78 175.986 1067.39ZM210.076 1157.15C209.145 1158.16 209.145 1158.46 210.309 1159.55C211.551 1160.72 211.862 1160.72 212.872 1159.71C213.959 1158.7 213.959 1158.39 212.639 1157.22C211.397 1156.14 211.086 1156.14 210.076 1157.15ZM402.112 1223.92C400.714 1224.15 400.405 1223.76 400.481 1222.13C400.481 1220.58 400.87 1220.19 402.191 1220.42C403.276 1220.58 403.898 1221.2 403.898 1222.21C403.898 1223.24 403.303 1223.81 402.112 1223.92ZM337.583 1308.16C336.961 1308.93 337.117 1309.55 338.126 1310.56C339.29 1311.8 339.523 1311.81 340.378 1310.72C341.154 1309.79 341.154 1309.32 340.378 1308.39C339.912 1307.69 339.214 1307.15 338.981 1307.22C338.67 1307.22 338.048 1307.69 337.583 1308.16ZM362.975 1310.56C361.966 1309.55 361.809 1308.93 362.431 1308.16C362.897 1307.69 363.519 1307.22 363.83 1307.22C364.063 1307.15 364.761 1307.69 365.226 1308.39C366.003 1309.32 366.003 1309.79 365.226 1310.72C364.374 1311.81 364.139 1311.8 362.975 1310.56ZM613.328 1464.36C612.63 1465.37 612.63 1465.84 613.328 1466.77C614.259 1467.86 614.416 1467.86 615.503 1466.77C616.513 1465.76 616.513 1465.45 615.503 1464.36C614.416 1463.29 614.183 1463.29 613.328 1464.36ZM446.374 1584.17C445.676 1584.09 444.978 1583.23 444.821 1582.22C444.588 1580.9 444.899 1580.51 446.141 1580.51C447.383 1580.51 447.773 1580.98 447.773 1582.46C447.773 1583.84 447.383 1584.32 446.374 1584.17ZM429.136 1597.59C429.136 1598.64 429.653 1599.15 430.689 1599.15C431.723 1599.15 432.242 1598.64 432.242 1597.59C432.242 1596.56 431.723 1596.04 430.689 1596.04C429.653 1596.04 429.136 1596.56 429.136 1597.59ZM415.159 1614.67C414.123 1614.67 413.606 1614.15 413.606 1613.12C413.606 1612.09 414.123 1611.58 415.159 1611.58C416.193 1611.58 416.712 1612.09 416.712 1613.12C416.712 1614.15 416.193 1614.67 415.159 1614.67ZM397.299 1629.81C397.299 1631.21 397.686 1631.75 398.852 1631.75C400.015 1631.75 400.405 1631.21 400.405 1629.81C400.405 1628.41 400.015 1627.88 398.852 1627.88C397.686 1627.88 397.299 1628.41 397.299 1629.81Z" fill="white" fill-opacity="0.1"/>
</g>
</svg>
